<svg xmlns="http://www.w3.org/2000/svg" xmlns:xlink="http://www.w3.org/1999/xlink" width="500" zoomAndPan="magnify" viewBox="0 0 375 374.999991" height="500" preserveAspectRatio="xMidYMid meet" version="1.0"><defs><clipPath id="id1"><path d="M 0 0 L 375 0 L 375 374.25 L 0 374.25 Z M 0 0 " clip-rule="nonzero"/></clipPath></defs><rect x="-37.5" width="450" fill="#ffffff" y="-37.499999" height="449.999989" fill-opacity="1"/><rect x="-37.5" width="450" fill="#ffffff" y="-37.499999" height="449.999989" fill-opacity="1"/><rect x="-37.5" width="450" fill="#000000" y="-37.499999" height="449.999989" fill-opacity="1"/><g clip-path="url(#id1)"><path fill="#ffffff" d="M 203.550781 0 L 203.550781 16.546875 C 290.382812 24.65625 358.515625 97.90625 358.515625 186.792969 C 358.515625 281.066406 281.816406 357.777344 187.496094 357.777344 C 93.175781 357.777344 16.484375 281.066406 16.484375 186.792969 C 16.484375 97.90625 84.648438 24.640625 171.453125 16.539062 L 171.453125 0 C 75.550781 8.160156 0.0078125 88.804688 0.0078125 186.792969 C 0.0078125 290.152344 84.117188 374.25 187.496094 374.25 C 290.875 374.25 374.992188 290.152344 374.992188 186.792969 C 374.992188 88.820312 299.449219 8.160156 203.550781 0 Z M 219.03125 35.492188 L 219.03125 52.363281 C 280.035156 66.660156 325.5625 121.542969 325.5625 186.792969 C 325.5625 262.902344 263.640625 324.835938 187.496094 324.835938 C 111.355469 324.835938 49.429688 262.902344 49.429688 186.792969 C 49.429688 121.515625 95.015625 66.695312 155.96875 52.378906 L 155.96875 35.492188 C 85.824219 50.085938 32.960938 112.375 32.960938 186.792969 C 32.960938 271.988281 102.289062 341.304688 187.496094 341.304688 C 272.707031 341.304688 342.039062 272.023438 342.039062 186.792969 C 342.039062 112.375 289.179688 50.085938 219.03125 35.492188 Z M 234.515625 74.65625 L 234.515625 92.800781 C 236.683594 93.886719 238.8125 95.042969 240.898438 96.277344 C 242.988281 97.511719 245.03125 98.8125 247.027344 100.1875 C 249.027344 101.5625 250.972656 103.003906 252.871094 104.511719 C 254.769531 106.019531 256.613281 107.59375 258.402344 109.230469 C 260.195312 110.867188 261.925781 112.5625 263.597656 114.316406 C 265.269531 116.074219 266.878906 117.886719 268.425781 119.753906 C 269.972656 121.617188 271.453125 123.539062 272.867188 125.507812 C 274.28125 127.476562 275.625 129.492188 276.902344 131.554688 C 278.175781 133.617188 279.378906 135.722656 280.507812 137.867188 C 281.636719 140.011719 282.691406 142.195312 283.671875 144.414062 C 284.648438 146.632812 285.550781 148.878906 286.371094 151.160156 C 287.195312 153.441406 287.9375 155.75 288.601562 158.082031 C 289.265625 160.414062 289.847656 162.765625 290.347656 165.136719 C 290.851562 167.507812 291.269531 169.894531 291.605469 172.296875 C 291.941406 174.699219 292.191406 177.109375 292.363281 179.527344 C 292.53125 181.945312 292.617188 184.367188 292.617188 186.792969 C 292.617188 244.742188 245.460938 291.890625 187.496094 291.890625 C 129.53125 291.890625 82.382812 244.742188 82.382812 186.792969 C 82.382812 184.367188 82.46875 181.945312 82.636719 179.527344 C 82.808594 177.105469 83.0625 174.695312 83.398438 172.292969 C 83.734375 169.894531 84.152344 167.507812 84.652344 165.132812 C 85.152344 162.761719 85.734375 160.40625 86.398438 158.074219 C 87.0625 155.742188 87.808594 153.4375 88.628906 151.15625 C 89.453125 148.875 90.355469 146.625 91.332031 144.40625 C 92.3125 142.1875 93.367188 140.003906 94.496094 137.859375 C 95.625 135.714844 96.828125 133.609375 98.105469 131.546875 C 99.378906 129.484375 100.722656 127.464844 102.140625 125.496094 C 103.554688 123.527344 105.035156 121.609375 106.582031 119.742188 C 108.128906 117.875 109.738281 116.0625 111.410156 114.304688 C 113.085938 112.550781 114.816406 110.851562 116.605469 109.21875 C 118.394531 107.582031 120.238281 106.007812 122.136719 104.5 C 124.035156 102.988281 125.984375 101.546875 127.984375 100.175781 C 129.980469 98.800781 132.027344 97.496094 134.113281 96.261719 C 136.203125 95.03125 138.332031 93.871094 140.5 92.785156 L 140.5 74.65625 C 96.714844 93.082031 65.90625 136.394531 65.90625 186.792969 C 65.90625 253.8125 120.449219 308.335938 187.46875 308.335938 C 254.484375 308.335938 309.066406 253.785156 309.066406 186.792969 C 309.09375 136.410156 278.285156 93.082031 234.515625 74.65625 Z M 234.515625 74.65625 " fill-opacity="1" fill-rule="nonzero"/></g></svg>