<svg xmlns="http://www.w3.org/2000/svg" xmlns:xlink="http://www.w3.org/1999/xlink" width="600" zoomAndPan="magnify" viewBox="0 0 450 30.000001" height="40" preserveAspectRatio="xMidYMid meet" version="1.0"><defs><g/><clipPath id="id1"><path d="M 133.863281 5.902344 L 152.007812 5.902344 L 152.007812 24.046875 L 133.863281 24.046875 Z M 133.863281 5.902344 " clip-rule="nonzero"/></clipPath><clipPath id="id2"><path d="M 396.886719 5.902344 L 415.03125 5.902344 L 415.03125 24.046875 L 396.886719 24.046875 Z M 396.886719 5.902344 " clip-rule="nonzero"/></clipPath></defs><g fill="#faf6f5" fill-opacity="1"><g transform="translate(5.999468, 22.973253)"><g><path d="M 2.234375 -17 L 3.078125 -17 L 14.34375 -1.5 L 14.453125 -1.5 L 14.453125 -17 L 15.265625 -17 L 15.265625 0 L 14.421875 0 L 3.15625 -15.484375 L 3.0625 -15.484375 L 3.0625 0 L 2.234375 0 Z M 2.234375 -17 "/></g></g></g><g fill="#faf6f5" fill-opacity="1"><g transform="translate(42.927838, 22.973253)"><g><path d="M 2.234375 -17 L 3.078125 -17 L 3.078125 0 L 2.234375 0 Z M 2.234375 -17 "/></g></g></g><g fill="#faf6f5" fill-opacity="1"><g transform="translate(67.672513, 22.973253)"><g><path d="M 9.171875 0.125 C 7.617188 0.125 6.273438 -0.234375 5.140625 -0.953125 C 4.015625 -1.679688 3.144531 -2.695312 2.53125 -4 C 1.925781 -5.3125 1.625 -6.851562 1.625 -8.625 C 1.625 -10.382812 1.925781 -11.921875 2.53125 -13.234375 C 3.144531 -14.554688 4.019531 -15.570312 5.15625 -16.28125 C 6.300781 -17 7.640625 -17.359375 9.171875 -17.359375 C 11.023438 -17.359375 12.570312 -16.851562 13.8125 -15.84375 C 15.0625 -14.832031 15.910156 -13.425781 16.359375 -11.625 L 15.484375 -11.625 C 15.046875 -13.164062 14.273438 -14.367188 13.171875 -15.234375 C 12.066406 -16.097656 10.734375 -16.53125 9.171875 -16.53125 C 7.066406 -16.53125 5.4375 -15.828125 4.28125 -14.421875 C 3.125 -13.015625 2.546875 -11.085938 2.546875 -8.640625 C 2.546875 -6.203125 3.125 -4.273438 4.28125 -2.859375 C 5.4375 -1.441406 7.066406 -0.734375 9.171875 -0.734375 C 10.617188 -0.734375 11.867188 -1.101562 12.921875 -1.84375 C 13.984375 -2.59375 14.765625 -3.640625 15.265625 -4.984375 L 16.171875 -4.984375 C 15.648438 -3.378906 14.785156 -2.125 13.578125 -1.21875 C 12.378906 -0.320312 10.910156 0.125 9.171875 0.125 Z M 9.171875 0.125 "/></g></g></g><g fill="#faf6f5" fill-opacity="1"><g transform="translate(104.673691, 22.973253)"><g><path d="M 14.234375 -17 L 14.234375 0 L 13.40625 0 L 13.40625 -8.1875 L 3.0625 -8.1875 L 3.0625 0 L 2.234375 0 L 2.234375 -17 L 3.0625 -17 L 3.0625 -8.953125 L 13.40625 -8.953125 L 13.40625 -17 Z M 14.234375 -17 "/></g></g></g><g fill="#faf6f5" fill-opacity="1"><g transform="translate(140.558436, 22.973253)"><g/></g></g><g fill="#faf6f5" fill-opacity="1"><g transform="translate(165.570078, 22.973253)"><g><path d="M 11.578125 -0.828125 L 11.578125 0 L 2.265625 0 L 2.234375 -17 L 3.078125 -17 L 3.03125 -0.828125 Z M 11.578125 -0.828125 "/></g></g></g><g fill="#faf6f5" fill-opacity="1"><g transform="translate(197.7172, 22.973253)"><g><path d="M 12.328125 -5.703125 L 4.296875 -5.703125 L 2.0625 0 L 1.21875 0 L 7.84375 -17 L 8.6875 -17 L 15.4375 0 L 14.59375 0 Z M 12.015625 -6.484375 L 8.296875 -15.859375 L 8.25 -15.859375 L 4.59375 -6.484375 Z M 12.015625 -6.484375 "/></g></g></g><g fill="#faf6f5" fill-opacity="1"><g transform="translate(233.796104, 22.973253)"><g><path d="M 7.359375 0.171875 C 6.078125 0.171875 4.988281 -0.101562 4.09375 -0.65625 C 3.207031 -1.207031 2.546875 -1.910156 2.109375 -2.765625 C 1.671875 -3.628906 1.453125 -4.519531 1.453125 -5.4375 L 1.453125 -5.484375 L 2.375 -5.484375 L 2.375 -5.421875 C 2.375 -4.722656 2.539062 -4.007812 2.875 -3.28125 C 3.207031 -2.550781 3.742188 -1.9375 4.484375 -1.4375 C 5.234375 -0.945312 6.191406 -0.703125 7.359375 -0.703125 C 8.710938 -0.703125 9.84375 -1.050781 10.75 -1.75 C 11.65625 -2.445312 12.109375 -3.398438 12.109375 -4.609375 C 12.109375 -5.585938 11.796875 -6.359375 11.171875 -6.921875 C 10.554688 -7.484375 9.753906 -7.863281 8.765625 -8.0625 L 5.90625 -8.59375 C 5 -8.757812 4.109375 -9.125 3.234375 -9.6875 C 2.359375 -10.25 1.921875 -11.269531 1.921875 -12.75 C 1.921875 -13.65625 2.132812 -14.457031 2.5625 -15.15625 C 2.988281 -15.851562 3.597656 -16.394531 4.390625 -16.78125 C 5.179688 -17.164062 6.101562 -17.359375 7.15625 -17.359375 C 8.351562 -17.359375 9.378906 -17.109375 10.234375 -16.609375 C 11.085938 -16.109375 11.722656 -15.457031 12.140625 -14.65625 C 12.554688 -13.863281 12.765625 -13.039062 12.765625 -12.1875 L 12.765625 -12.140625 L 11.84375 -12.140625 L 11.84375 -12.1875 C 11.84375 -12.800781 11.695312 -13.4375 11.40625 -14.09375 C 11.113281 -14.75 10.613281 -15.316406 9.90625 -15.796875 C 9.207031 -16.273438 8.289062 -16.515625 7.15625 -16.515625 C 6.269531 -16.515625 5.492188 -16.34375 4.828125 -16 C 4.171875 -15.65625 3.664062 -15.191406 3.3125 -14.609375 C 2.96875 -14.035156 2.796875 -13.398438 2.796875 -12.703125 C 2.796875 -11.859375 3.050781 -11.15625 3.5625 -10.59375 C 4.082031 -10.039062 4.847656 -9.664062 5.859375 -9.46875 L 8.28125 -9.015625 C 9.507812 -8.785156 10.597656 -8.363281 11.546875 -7.75 C 12.503906 -7.144531 12.984375 -6.113281 12.984375 -4.65625 C 12.984375 -3.738281 12.753906 -2.914062 12.296875 -2.1875 C 11.847656 -1.457031 11.195312 -0.878906 10.34375 -0.453125 C 9.488281 -0.0351562 8.492188 0.171875 7.359375 0.171875 Z M 7.359375 0.171875 "/></g></g></g><g fill="#faf6f5" fill-opacity="1"><g transform="translate(267.666416, 22.973253)"><g/></g></g><g fill="#faf6f5" fill-opacity="1"><g transform="translate(292.678058, 22.973253)"><g><path d="M 2.234375 -17 L 3.40625 -17 L 9.734375 -1.453125 L 9.828125 -1.453125 L 16.171875 -17 L 17.34375 -17 L 17.34375 0 L 16.515625 0 L 16.515625 -15.34375 L 16.421875 -15.34375 L 10.203125 0 L 9.375 0 L 3.15625 -15.34375 L 3.0625 -15.34375 L 3.0625 0 L 2.234375 0 Z M 2.234375 -17 "/></g></g></g><g fill="#faf6f5" fill-opacity="1"><g transform="translate(331.669394, 22.973253)"><g><path d="M 12.328125 -5.703125 L 4.296875 -5.703125 L 2.0625 0 L 1.21875 0 L 7.84375 -17 L 8.6875 -17 L 15.4375 0 L 14.59375 0 Z M 12.015625 -6.484375 L 8.296875 -15.859375 L 8.25 -15.859375 L 4.59375 -6.484375 Z M 12.015625 -6.484375 "/></g></g></g><g fill="#faf6f5" fill-opacity="1"><g transform="translate(367.748315, 22.973253)"><g><path d="M 7.359375 0.171875 C 6.078125 0.171875 4.988281 -0.101562 4.09375 -0.65625 C 3.207031 -1.207031 2.546875 -1.910156 2.109375 -2.765625 C 1.671875 -3.628906 1.453125 -4.519531 1.453125 -5.4375 L 1.453125 -5.484375 L 2.375 -5.484375 L 2.375 -5.421875 C 2.375 -4.722656 2.539062 -4.007812 2.875 -3.28125 C 3.207031 -2.550781 3.742188 -1.9375 4.484375 -1.4375 C 5.234375 -0.945312 6.191406 -0.703125 7.359375 -0.703125 C 8.710938 -0.703125 9.84375 -1.050781 10.75 -1.75 C 11.65625 -2.445312 12.109375 -3.398438 12.109375 -4.609375 C 12.109375 -5.585938 11.796875 -6.359375 11.171875 -6.921875 C 10.554688 -7.484375 9.753906 -7.863281 8.765625 -8.0625 L 5.90625 -8.59375 C 5 -8.757812 4.109375 -9.125 3.234375 -9.6875 C 2.359375 -10.25 1.921875 -11.269531 1.921875 -12.75 C 1.921875 -13.65625 2.132812 -14.457031 2.5625 -15.15625 C 2.988281 -15.851562 3.597656 -16.394531 4.390625 -16.78125 C 5.179688 -17.164062 6.101562 -17.359375 7.15625 -17.359375 C 8.351562 -17.359375 9.378906 -17.109375 10.234375 -16.609375 C 11.085938 -16.109375 11.722656 -15.457031 12.140625 -14.65625 C 12.554688 -13.863281 12.765625 -13.039062 12.765625 -12.1875 L 12.765625 -12.140625 L 11.84375 -12.140625 L 11.84375 -12.1875 C 11.84375 -12.800781 11.695312 -13.4375 11.40625 -14.09375 C 11.113281 -14.75 10.613281 -15.316406 9.90625 -15.796875 C 9.207031 -16.273438 8.289062 -16.515625 7.15625 -16.515625 C 6.269531 -16.515625 5.492188 -16.34375 4.828125 -16 C 4.171875 -15.65625 3.664062 -15.191406 3.3125 -14.609375 C 2.96875 -14.035156 2.796875 -13.398438 2.796875 -12.703125 C 2.796875 -11.859375 3.050781 -11.15625 3.5625 -10.59375 C 4.082031 -10.039062 4.847656 -9.664062 5.859375 -9.46875 L 8.28125 -9.015625 C 9.507812 -8.785156 10.597656 -8.363281 11.546875 -7.75 C 12.503906 -7.144531 12.984375 -6.113281 12.984375 -4.65625 C 12.984375 -3.738281 12.753906 -2.914062 12.296875 -2.1875 C 11.847656 -1.457031 11.195312 -0.878906 10.34375 -0.453125 C 9.488281 -0.0351562 8.492188 0.171875 7.359375 0.171875 Z M 7.359375 0.171875 "/></g></g></g><g fill="#faf6f5" fill-opacity="1"><g transform="translate(401.618646, 22.973253)"><g/></g></g><g fill="#faf6f5" fill-opacity="1"><g transform="translate(426.630304, 22.973253)"><g><path d="M 2.234375 -17 L 3.078125 -17 L 14.34375 -1.5 L 14.453125 -1.5 L 14.453125 -17 L 15.265625 -17 L 15.265625 0 L 14.421875 0 L 3.15625 -15.484375 L 3.0625 -15.484375 L 3.0625 0 L 2.234375 0 Z M 2.234375 -17 "/></g></g></g><g clip-path="url(#id1)"><path fill="#ffffff" d="M 143.714844 5.902344 L 143.714844 6.707031 C 147.914062 7.097656 151.210938 10.648438 151.210938 14.960938 C 151.210938 19.53125 147.5 23.25 142.9375 23.25 C 138.375 23.25 134.664062 19.53125 134.664062 14.960938 C 134.664062 10.648438 137.960938 7.097656 142.160156 6.703125 L 142.160156 5.902344 C 137.519531 6.296875 133.863281 10.207031 133.863281 14.960938 C 133.863281 19.972656 137.933594 24.046875 142.9375 24.046875 C 147.9375 24.046875 152.007812 19.972656 152.007812 14.960938 C 152.007812 10.210938 148.355469 6.296875 143.714844 5.902344 Z M 144.460938 7.625 L 144.460938 8.441406 C 147.414062 9.136719 149.617188 11.796875 149.617188 14.960938 C 149.617188 18.648438 146.621094 21.652344 142.9375 21.652344 C 139.253906 21.652344 136.257812 18.648438 136.257812 14.960938 C 136.257812 11.792969 138.460938 9.136719 141.410156 8.441406 L 141.410156 7.625 C 138.015625 8.332031 135.460938 11.351562 135.460938 14.960938 C 135.460938 19.089844 138.8125 22.449219 142.9375 22.449219 C 147.058594 22.449219 150.414062 19.09375 150.414062 14.960938 C 150.414062 11.351562 147.855469 8.332031 144.460938 7.625 Z M 145.210938 9.523438 L 145.210938 10.402344 C 145.632812 10.613281 146.019531 10.878906 146.367188 11.199219 C 146.714844 11.519531 147.015625 11.878906 147.261719 12.28125 C 147.511719 12.683594 147.699219 13.113281 147.828125 13.566406 C 147.957031 14.023438 148.023438 14.488281 148.023438 14.960938 C 148.023438 17.769531 145.742188 20.054688 142.9375 20.054688 C 140.132812 20.054688 137.851562 17.769531 137.851562 14.960938 C 137.851562 14.488281 137.917969 14.023438 138.046875 13.566406 C 138.175781 13.113281 138.363281 12.683594 138.613281 12.28125 C 138.859375 11.878906 139.160156 11.519531 139.507812 11.199219 C 139.855469 10.878906 140.242188 10.613281 140.664062 10.402344 L 140.664062 9.523438 C 138.542969 10.414062 137.054688 12.515625 137.054688 14.960938 C 137.054688 18.207031 139.691406 20.851562 142.9375 20.851562 C 146.179688 20.851562 148.820312 18.207031 148.820312 14.960938 C 148.820312 12.515625 147.328125 10.414062 145.210938 9.523438 Z M 145.210938 9.523438 " fill-opacity="1" fill-rule="nonzero"/></g><g clip-path="url(#id2)"><path fill="#ffffff" d="M 406.738281 5.902344 L 406.738281 6.707031 C 410.9375 7.097656 414.234375 10.648438 414.234375 14.960938 C 414.234375 19.53125 410.523438 23.25 405.960938 23.25 C 401.394531 23.25 397.683594 19.53125 397.683594 14.960938 C 397.683594 10.648438 400.984375 7.097656 405.183594 6.703125 L 405.183594 5.902344 C 400.542969 6.296875 396.886719 10.207031 396.886719 14.960938 C 396.886719 19.972656 400.957031 24.046875 405.960938 24.046875 C 410.960938 24.046875 415.03125 19.972656 415.03125 14.960938 C 415.03125 10.210938 411.375 6.296875 406.738281 5.902344 Z M 407.484375 7.625 L 407.484375 8.441406 C 410.4375 9.136719 412.640625 11.796875 412.640625 14.960938 C 412.640625 18.648438 409.644531 21.652344 405.960938 21.652344 C 402.273438 21.652344 399.277344 18.648438 399.277344 14.960938 C 399.277344 11.792969 401.484375 9.136719 404.433594 8.441406 L 404.433594 7.625 C 401.039062 8.332031 398.480469 11.351562 398.480469 14.960938 C 398.480469 19.089844 401.835938 22.449219 405.960938 22.449219 C 410.082031 22.449219 413.4375 19.09375 413.4375 14.960938 C 413.4375 11.351562 410.878906 8.332031 407.484375 7.625 Z M 408.234375 9.523438 L 408.234375 10.402344 C 408.65625 10.613281 409.042969 10.878906 409.390625 11.199219 C 409.738281 11.519531 410.039062 11.878906 410.285156 12.28125 C 410.535156 12.683594 410.722656 13.113281 410.851562 13.566406 C 410.980469 14.023438 411.046875 14.488281 411.046875 14.960938 C 411.046875 17.769531 408.765625 20.054688 405.960938 20.054688 C 403.15625 20.054688 400.875 17.769531 400.875 14.960938 C 400.875 14.488281 400.9375 14.023438 401.066406 13.566406 C 401.195312 13.113281 401.386719 12.683594 401.632812 12.28125 C 401.882812 11.878906 402.179688 11.519531 402.53125 11.199219 C 402.878906 10.878906 403.261719 10.613281 403.6875 10.402344 L 403.6875 9.523438 C 401.566406 10.414062 400.078125 12.515625 400.078125 14.960938 C 400.078125 18.207031 402.714844 20.851562 405.957031 20.851562 C 409.199219 20.851562 411.84375 18.207031 411.84375 14.960938 C 411.84375 12.515625 410.351562 10.414062 408.234375 9.523438 Z M 408.234375 9.523438 " fill-opacity="1" fill-rule="nonzero"/></g></svg>