<svg xmlns="http://www.w3.org/2000/svg" xmlns:xlink="http://www.w3.org/1999/xlink" width="600" zoomAndPan="magnify" viewBox="0 0 450 30.000001" height="40" preserveAspectRatio="xMidYMid meet" version="1.0"><defs><g/><clipPath id="id1"><path d="M 140.453125 5.625 L 157.875 5.625 L 157.875 23.042969 L 140.453125 23.042969 Z M 140.453125 5.625 " clip-rule="nonzero"/></clipPath><clipPath id="id2"><path d="M 393.871094 5.625 L 411.289062 5.625 L 411.289062 23.042969 L 393.871094 23.042969 Z M 393.871094 5.625 " clip-rule="nonzero"/></clipPath></defs><g fill="#faf6f5" fill-opacity="1"><g transform="translate(17.259419, 22.070091)"><g><path d="M 2.15625 -16.375 L 2.96875 -16.375 L 13.828125 -1.453125 L 13.921875 -1.453125 L 13.921875 -16.375 L 14.71875 -16.375 L 14.71875 0 L 13.890625 0 L 3.046875 -14.921875 L 2.953125 -14.921875 L 2.953125 0 L 2.15625 0 Z M 2.15625 -16.375 "/></g></g></g><g fill="#faf6f5" fill-opacity="1"><g transform="translate(52.838906, 22.070091)"><g><path d="M 2.15625 -16.375 L 2.96875 -16.375 L 2.96875 0 L 2.15625 0 Z M 2.15625 -16.375 "/></g></g></g><g fill="#faf6f5" fill-opacity="1"><g transform="translate(76.679731, 22.070091)"><g><path d="M 8.84375 0.109375 C 7.34375 0.109375 6.046875 -0.234375 4.953125 -0.921875 C 3.867188 -1.617188 3.03125 -2.597656 2.4375 -3.859375 C 1.851562 -5.117188 1.5625 -6.597656 1.5625 -8.296875 C 1.5625 -10.003906 1.851562 -11.492188 2.4375 -12.765625 C 3.03125 -14.035156 3.875 -15.007812 4.96875 -15.6875 C 6.070312 -16.375 7.363281 -16.71875 8.84375 -16.71875 C 10.625 -16.71875 12.113281 -16.226562 13.3125 -15.25 C 14.507812 -14.28125 15.328125 -12.929688 15.765625 -11.203125 L 14.921875 -11.203125 C 14.503906 -12.679688 13.757812 -13.835938 12.6875 -14.671875 C 11.625 -15.503906 10.34375 -15.921875 8.84375 -15.921875 C 6.8125 -15.921875 5.238281 -15.242188 4.125 -13.890625 C 3.007812 -12.535156 2.453125 -10.679688 2.453125 -8.328125 C 2.453125 -5.972656 3.007812 -4.113281 4.125 -2.75 C 5.238281 -1.382812 6.8125 -0.703125 8.84375 -0.703125 C 10.226562 -0.703125 11.429688 -1.0625 12.453125 -1.78125 C 13.472656 -2.5 14.226562 -3.503906 14.71875 -4.796875 L 15.578125 -4.796875 C 15.078125 -3.253906 14.242188 -2.050781 13.078125 -1.1875 C 11.921875 -0.320312 10.507812 0.109375 8.84375 0.109375 Z M 8.84375 0.109375 "/></g></g></g><g fill="#faf6f5" fill-opacity="1"><g transform="translate(112.329366, 22.070091)"><g><path d="M 13.703125 -16.375 L 13.703125 0 L 12.90625 0 L 12.90625 -7.875 L 2.953125 -7.875 L 2.953125 0 L 2.15625 0 L 2.15625 -16.375 L 2.953125 -16.375 L 2.953125 -8.625 L 12.90625 -8.625 L 12.90625 -16.375 Z M 13.703125 -16.375 "/></g></g></g><g fill="#faf6f5" fill-opacity="1"><g transform="translate(146.903348, 22.070091)"><g/></g></g><g fill="#faf6f5" fill-opacity="1"><g transform="translate(171.001389, 22.070091)"><g><path d="M 11.15625 -0.796875 L 11.15625 0 L 2.171875 0 L 2.15625 -16.375 L 2.96875 -16.375 L 2.921875 -0.796875 Z M 11.15625 -0.796875 "/></g></g></g><g fill="#faf6f5" fill-opacity="1"><g transform="translate(201.974273, 22.070091)"><g><path d="M 11.875 -5.5 L 4.140625 -5.5 L 1.984375 0 L 1.171875 0 L 7.5625 -16.375 L 8.375 -16.375 L 14.875 0 L 14.0625 0 Z M 11.578125 -6.25 L 8 -15.28125 L 7.953125 -15.28125 L 4.421875 -6.25 Z M 11.578125 -6.25 "/></g></g></g><g fill="#faf6f5" fill-opacity="1"><g transform="translate(236.735321, 22.070091)"><g><path d="M 7.09375 0.15625 C 5.851562 0.15625 4.804688 -0.101562 3.953125 -0.625 C 3.097656 -1.15625 2.457031 -1.832031 2.03125 -2.65625 C 1.613281 -3.488281 1.40625 -4.347656 1.40625 -5.234375 L 1.40625 -5.28125 L 2.296875 -5.28125 L 2.296875 -5.21875 C 2.296875 -4.539062 2.453125 -3.851562 2.765625 -3.15625 C 3.085938 -2.457031 3.609375 -1.867188 4.328125 -1.390625 C 5.046875 -0.910156 5.96875 -0.671875 7.09375 -0.671875 C 8.394531 -0.671875 9.484375 -1.003906 10.359375 -1.671875 C 11.234375 -2.347656 11.671875 -3.269531 11.671875 -4.4375 C 11.671875 -5.375 11.367188 -6.113281 10.765625 -6.65625 C 10.171875 -7.207031 9.394531 -7.578125 8.4375 -7.765625 L 5.6875 -8.28125 C 4.8125 -8.4375 3.953125 -8.785156 3.109375 -9.328125 C 2.265625 -9.878906 1.84375 -10.863281 1.84375 -12.28125 C 1.84375 -13.15625 2.050781 -13.925781 2.46875 -14.59375 C 2.882812 -15.257812 3.472656 -15.78125 4.234375 -16.15625 C 4.992188 -16.53125 5.882812 -16.71875 6.90625 -16.71875 C 8.050781 -16.71875 9.035156 -16.476562 9.859375 -16 C 10.679688 -15.519531 11.289062 -14.894531 11.6875 -14.125 C 12.09375 -13.363281 12.296875 -12.566406 12.296875 -11.734375 L 12.296875 -11.6875 L 11.421875 -11.6875 L 11.421875 -11.734375 C 11.421875 -12.328125 11.28125 -12.941406 11 -13.578125 C 10.71875 -14.210938 10.234375 -14.757812 9.546875 -15.21875 C 8.867188 -15.675781 7.988281 -15.90625 6.90625 -15.90625 C 6.039062 -15.90625 5.289062 -15.738281 4.65625 -15.40625 C 4.019531 -15.082031 3.53125 -14.640625 3.1875 -14.078125 C 2.851562 -13.515625 2.6875 -12.898438 2.6875 -12.234375 C 2.6875 -11.421875 2.9375 -10.742188 3.4375 -10.203125 C 3.9375 -9.671875 4.671875 -9.3125 5.640625 -9.125 L 7.96875 -8.671875 C 9.15625 -8.453125 10.207031 -8.050781 11.125 -7.46875 C 12.050781 -6.882812 12.515625 -5.890625 12.515625 -4.484375 C 12.515625 -3.597656 12.296875 -2.800781 11.859375 -2.09375 C 11.421875 -1.394531 10.785156 -0.84375 9.953125 -0.4375 C 9.128906 -0.0390625 8.175781 0.15625 7.09375 0.15625 Z M 7.09375 0.15625 "/></g></g></g><g fill="#faf6f5" fill-opacity="1"><g transform="translate(269.368452, 22.070091)"><g/></g></g><g fill="#faf6f5" fill-opacity="1"><g transform="translate(293.466492, 22.070091)"><g><path d="M 2.15625 -16.375 L 3.28125 -16.375 L 9.375 -1.40625 L 9.46875 -1.40625 L 15.578125 -16.375 L 16.703125 -16.375 L 16.703125 0 L 15.90625 0 L 15.90625 -14.78125 L 15.8125 -14.78125 L 9.828125 0 L 9.03125 0 L 3.046875 -14.78125 L 2.953125 -14.78125 L 2.953125 0 L 2.15625 0 Z M 2.15625 -16.375 "/></g></g></g><g fill="#faf6f5" fill-opacity="1"><g transform="translate(331.03359, 22.070091)"><g><path d="M 11.875 -5.5 L 4.140625 -5.5 L 1.984375 0 L 1.171875 0 L 7.5625 -16.375 L 8.375 -16.375 L 14.875 0 L 14.0625 0 Z M 11.578125 -6.25 L 8 -15.28125 L 7.953125 -15.28125 L 4.421875 -6.25 Z M 11.578125 -6.25 "/></g></g></g><g fill="#faf6f5" fill-opacity="1"><g transform="translate(365.794656, 22.070091)"><g><path d="M 7.09375 0.15625 C 5.851562 0.15625 4.804688 -0.101562 3.953125 -0.625 C 3.097656 -1.15625 2.457031 -1.832031 2.03125 -2.65625 C 1.613281 -3.488281 1.40625 -4.347656 1.40625 -5.234375 L 1.40625 -5.28125 L 2.296875 -5.28125 L 2.296875 -5.21875 C 2.296875 -4.539062 2.453125 -3.851562 2.765625 -3.15625 C 3.085938 -2.457031 3.609375 -1.867188 4.328125 -1.390625 C 5.046875 -0.910156 5.96875 -0.671875 7.09375 -0.671875 C 8.394531 -0.671875 9.484375 -1.003906 10.359375 -1.671875 C 11.234375 -2.347656 11.671875 -3.269531 11.671875 -4.4375 C 11.671875 -5.375 11.367188 -6.113281 10.765625 -6.65625 C 10.171875 -7.207031 9.394531 -7.578125 8.4375 -7.765625 L 5.6875 -8.28125 C 4.8125 -8.4375 3.953125 -8.785156 3.109375 -9.328125 C 2.265625 -9.878906 1.84375 -10.863281 1.84375 -12.28125 C 1.84375 -13.15625 2.050781 -13.925781 2.46875 -14.59375 C 2.882812 -15.257812 3.472656 -15.78125 4.234375 -16.15625 C 4.992188 -16.53125 5.882812 -16.71875 6.90625 -16.71875 C 8.050781 -16.71875 9.035156 -16.476562 9.859375 -16 C 10.679688 -15.519531 11.289062 -14.894531 11.6875 -14.125 C 12.09375 -13.363281 12.296875 -12.566406 12.296875 -11.734375 L 12.296875 -11.6875 L 11.421875 -11.6875 L 11.421875 -11.734375 C 11.421875 -12.328125 11.28125 -12.941406 11 -13.578125 C 10.71875 -14.210938 10.234375 -14.757812 9.546875 -15.21875 C 8.867188 -15.675781 7.988281 -15.90625 6.90625 -15.90625 C 6.039062 -15.90625 5.289062 -15.738281 4.65625 -15.40625 C 4.019531 -15.082031 3.53125 -14.640625 3.1875 -14.078125 C 2.851562 -13.515625 2.6875 -12.898438 2.6875 -12.234375 C 2.6875 -11.421875 2.9375 -10.742188 3.4375 -10.203125 C 3.9375 -9.671875 4.671875 -9.3125 5.640625 -9.125 L 7.96875 -8.671875 C 9.15625 -8.453125 10.207031 -8.050781 11.125 -7.46875 C 12.050781 -6.882812 12.515625 -5.890625 12.515625 -4.484375 C 12.515625 -3.597656 12.296875 -2.800781 11.859375 -2.09375 C 11.421875 -1.394531 10.785156 -0.84375 9.953125 -0.4375 C 9.128906 -0.0390625 8.175781 0.15625 7.09375 0.15625 Z M 7.09375 0.15625 "/></g></g></g><g fill="#faf6f5" fill-opacity="1"><g transform="translate(398.427804, 22.070091)"><g/></g></g><g fill="#faf6f5" fill-opacity="1"><g transform="translate(422.525861, 22.070091)"><g><path d="M 2.15625 -16.375 L 2.96875 -16.375 L 13.828125 -1.453125 L 13.921875 -1.453125 L 13.921875 -16.375 L 14.71875 -16.375 L 14.71875 0 L 13.890625 0 L 3.046875 -14.921875 L 2.953125 -14.921875 L 2.953125 0 L 2.15625 0 Z M 2.15625 -16.375 "/></g></g></g><g clip-path="url(#id1)"><path fill="#ffffff" d="M 149.910156 5.625 L 149.910156 6.394531 C 153.941406 6.769531 157.105469 10.179688 157.105469 14.316406 C 157.105469 18.707031 153.542969 22.277344 149.164062 22.277344 C 144.78125 22.277344 141.21875 18.707031 141.21875 14.316406 C 141.21875 10.179688 144.386719 6.769531 148.417969 6.394531 L 148.417969 5.625 C 143.964844 6.003906 140.457031 9.757812 140.457031 14.316406 C 140.457031 19.128906 144.363281 23.042969 149.164062 23.042969 C 153.964844 23.042969 157.871094 19.128906 157.871094 14.316406 C 157.871094 9.757812 154.363281 6.003906 149.910156 5.625 Z M 150.628906 7.277344 L 150.628906 8.0625 C 153.460938 8.726562 155.578125 11.28125 155.578125 14.316406 C 155.578125 17.859375 152.699219 20.742188 149.164062 20.742188 C 145.625 20.742188 142.75 17.859375 142.75 14.316406 C 142.75 11.277344 144.867188 8.726562 147.699219 8.0625 L 147.699219 7.277344 C 144.441406 7.953125 141.984375 10.855469 141.984375 14.316406 C 141.984375 18.28125 145.207031 21.507812 149.164062 21.507812 C 153.121094 21.507812 156.339844 18.285156 156.339844 14.316406 C 156.339844 10.855469 153.886719 7.953125 150.628906 7.277344 Z M 151.347656 9.097656 L 151.347656 9.941406 C 151.753906 10.144531 152.121094 10.402344 152.457031 10.707031 C 152.792969 11.015625 153.078125 11.359375 153.316406 11.746094 C 153.554688 12.132812 153.734375 12.542969 153.859375 12.980469 C 153.984375 13.417969 154.046875 13.863281 154.046875 14.316406 C 154.046875 17.015625 151.855469 19.210938 149.164062 19.210938 C 146.472656 19.210938 144.28125 17.015625 144.28125 14.316406 C 144.28125 13.863281 144.34375 13.417969 144.46875 12.980469 C 144.59375 12.542969 144.773438 12.132812 145.011719 11.746094 C 145.25 11.359375 145.535156 11.011719 145.871094 10.707031 C 146.207031 10.398438 146.574219 10.144531 146.980469 9.941406 L 146.980469 9.097656 C 144.945312 9.957031 143.515625 11.972656 143.515625 14.316406 C 143.515625 17.4375 146.050781 19.976562 149.164062 19.976562 C 152.273438 19.976562 154.808594 17.4375 154.808594 14.316406 C 154.8125 11.972656 153.378906 9.957031 151.347656 9.097656 Z M 151.347656 9.097656 " fill-opacity="1" fill-rule="nonzero"/></g><g clip-path="url(#id2)"><path fill="#ffffff" d="M 403.324219 5.625 L 403.324219 6.394531 C 407.359375 6.769531 410.523438 10.179688 410.523438 14.316406 C 410.523438 18.707031 406.960938 22.277344 402.578125 22.277344 C 398.199219 22.277344 394.636719 18.707031 394.636719 14.316406 C 394.636719 10.179688 397.800781 6.769531 401.832031 6.394531 L 401.832031 5.625 C 397.378906 6.003906 393.871094 9.757812 393.871094 14.316406 C 393.871094 19.128906 397.777344 23.042969 402.578125 23.042969 C 407.378906 23.042969 411.289062 19.128906 411.289062 14.316406 C 411.289062 9.757812 407.777344 6.003906 403.324219 5.625 Z M 404.042969 7.277344 L 404.042969 8.0625 C 406.875 8.726562 408.992188 11.28125 408.992188 14.316406 C 408.992188 17.859375 406.117188 20.742188 402.578125 20.742188 C 399.042969 20.742188 396.164062 17.859375 396.164062 14.316406 C 396.164062 11.277344 398.28125 8.726562 401.113281 8.0625 L 401.113281 7.277344 C 397.855469 7.953125 395.402344 10.855469 395.402344 14.316406 C 395.402344 18.28125 398.621094 21.507812 402.578125 21.507812 C 406.535156 21.507812 409.757812 18.285156 409.757812 14.316406 C 409.757812 10.855469 407.300781 7.953125 404.042969 7.277344 Z M 404.761719 9.097656 L 404.761719 9.941406 C 405.167969 10.144531 405.539062 10.402344 405.871094 10.707031 C 406.207031 11.015625 406.492188 11.359375 406.730469 11.746094 C 406.96875 12.132812 407.152344 12.542969 407.273438 12.980469 C 407.398438 13.417969 407.460938 13.863281 407.460938 14.316406 C 407.460938 17.015625 405.269531 19.210938 402.578125 19.210938 C 399.886719 19.210938 397.695312 17.015625 397.695312 14.316406 C 397.695312 13.863281 397.757812 13.417969 397.882812 12.980469 C 398.007812 12.542969 398.1875 12.132812 398.425781 11.746094 C 398.664062 11.359375 398.953125 11.011719 399.285156 10.707031 C 399.621094 10.398438 399.992188 10.144531 400.394531 9.941406 L 400.394531 9.097656 C 398.363281 9.957031 396.929688 11.972656 396.929688 14.316406 C 396.929688 17.4375 399.464844 19.976562 402.578125 19.976562 C 405.691406 19.976562 408.226562 17.4375 408.226562 14.316406 C 408.226562 11.972656 406.796875 9.957031 404.761719 9.097656 Z M 404.761719 9.097656 " fill-opacity="1" fill-rule="nonzero"/></g></svg>